# xmcd
#
# Track frame offsets: 
#        150
#        11605
#        23962
#        36462
#        47495
#        60090
#        71489
#        83874
#        95304
#        107664
#
# Disc length: 1586 seconds
#
# Revision: 0
# Processed by: cddbd v1.5.2PL0 Copyright (c) Steve Scherf et al.
# Submitted via: ExactAudioCopy v0.99pb5
#
DISCID=7306300a
DTITLE=Gladys Knight and the Pips] - Gladys Knight and the Pips [Plati
DTITLE=num]
DYEAR=1900
DGENRE=R&B
TTITLE0=Goodnight My Love, Pleasant Dreams
TTITLE1=Love Me Again
TTITLE2=Come See About Me
TTITLE3=One More Lonely Night
TTITLE4=I Really Didn't Mean It
TTITLE5=How Do You Say Goodbye
TTITLE6=Jungle Love
TTITLE7=I Want That Kind of Love
TTITLE8=I Can't Stand By
TTITLE9=What Shall I Do
EXTD=
EXTT0=
EXTT1=
EXTT2=
EXTT3=
EXTT4=
EXTT5=
EXTT6=
EXTT7=
EXTT8=
EXTT9=
PLAYORDER=
